<?xml version="1.0" standalone="no"?>
<!DOCTYPE svg PUBLIC "-//W3C//DTD SVG 20010904//EN"
 "http://www.w3.org/TR/2001/REC-SVG-20010904/DTD/svg10.dtd">
<svg version="1.0" xmlns="http://www.w3.org/2000/svg"
 width="300.000000pt" height="300.000000pt" viewBox="0 0 300.000000 300.000000"
 preserveAspectRatio="xMidYMid meet">
<metadata>
Created by potrace 1.14, written by Peter Selinger 2001-2017
</metadata>
<g transform="translate(0.000000,300.000000) scale(0.100000,-0.100000)"
fill="#000000" stroke="none">
<path d="M966 2993 c-4 -5 -11 -8 -14 -8 -36 -1 -243 -104 -341 -171 -121 -81
-148 -103 -226 -181 -138 -137 -256 -298 -335 -458 l-45 -90 -3 -581 -2 -581
33 -79 c102 -238 286 -464 524 -644 42 -32 246 -150 259 -150 5 0 32 -11 59
-25 l50 -24 552 -1 552 0 56 24 c30 14 55 23 55 21 0 -6 159 83 220 124 164
108 337 281 445 446 64 98 155 281 170 340 1 6 7 23 13 38 9 20 12 165 12 493
l0 465 -40 107 c-155 413 -495 752 -912 912 l-80 30 -497 0 c-274 0 -501 -3
-505 -7z"/>
</g>
</svg>
